<svg width="24" height="24" viewBox="0 0 24 24" fill="none" xmlns="http://www.w3.org/2000/svg">
<g clip-path="url(#clip0)">
<path d="M16.4367 1C15.3172 1.07744 14.0086 1.79406 13.2461 2.72724C12.5505 3.5738 11.9782 4.83116 12.2013 6.0531C13.4246 6.09116 14.6885 5.35747 15.4209 4.40854C16.106 3.52523 16.6244 2.27574 16.4367 1Z" fill="black"/>
<path d="M20.8619 8.04546C19.787 6.69753 18.2763 5.91528 16.8496 5.91528C14.9662 5.91528 14.1695 6.81697 12.8609 6.81697C11.5117 6.81697 10.4866 5.91791 8.85783 5.91791C7.2579 5.91791 5.55429 6.89571 4.4741 8.56783C2.95555 10.9224 3.21542 15.3495 5.67635 19.1203C6.55703 20.4695 7.73302 21.9868 9.27126 21.9999C10.6402 22.013 11.0261 21.1218 12.8806 21.1126C14.7352 21.1021 15.0869 22.0117 16.4532 21.9973C17.9928 21.9854 19.2331 20.3041 20.1138 18.9549C20.7451 17.9876 20.98 17.5007 21.4696 16.4087C17.9088 15.0529 17.3378 9.98926 20.8619 8.04546Z" fill="black"/>
</g>
<defs>
<clipPath id="clip0">
<rect width="21" height="21" fill="white" transform="translate(2 1)"/>
</clipPath>
</defs>
</svg>
