<svg width="512" height="512" viewBox="0 0 512 512" fill="none"
  xmlns="http://www.w3.org/2000/svg"
  xmlns:xlink="http://www.w3.org/1999/xlink">
  <path d="M381.667 367.904C379.572 367.285 373.143 365.142 367.381 363.142C344.333 355.047 332.714 351.809 318.572 349.333C299.762 346.095 288.191 345.238 259.286 344.952C226.381 344.619 215.857 345.285 197.381 348.904C179.572 352.428 161.048 357.476 146.095 362.952C128.953 369.238 124.953 369.904 123.762 366.761C123.476 366.095 123.095 362.666 122.857 359.095C122.333 351.666 121.095 344.428 118.762 335.047C108.81 295.381 95.524 267.571 72.0954 237.428C66.3811 230.047 63.8097 226.142 63.8097 224.714C63.8097 222.904 67.3335 223.714 79.5239 228.381C96.8573 235.047 116.429 239.476 133.048 240.523C142.048 241.095 144.524 241.428 145.572 242.238C146.381 242.809 146.381 242.904 145.524 244.523C145 245.476 143.429 247.571 142 249.238C136.143 255.952 131.048 265.19 129.714 271.523C128.572 277.047 130 281.952 134.524 288.142C138.667 293.714 141.762 294.952 151.905 294.904C159.238 294.904 164 293.952 167.191 291.904C172.714 288.381 177.714 280.428 178.524 274.095C178.953 270.619 180 267.571 180.905 266.952C182.048 266.285 183.714 268.19 185.714 272.285C190.333 281.809 195.667 288.095 200.857 290.095C204.286 291.381 210.429 291.523 214.333 290.381C219.81 288.761 224.762 284.333 226.429 279.523C229.095 271.952 224.381 259.619 215.524 251.095C202.762 238.761 203.048 239.19 206.238 235.952C207.381 234.761 209.81 232.809 211.572 231.619C220.667 225.476 231.952 213.428 242.095 199.095C248.952 189.381 250.476 186.619 250.476 183.761C250.476 181.571 249.524 180.428 246.238 178.381C242.429 176.095 238.857 172.142 237.762 169C235.952 163.666 237.143 155.952 240.572 150.809C246.905 141.19 261.762 139.857 270.048 148.142C276.333 154.428 277.333 164.238 272.667 173.333C271.286 176 268.476 178.666 265.905 179.809C261.905 181.571 261.667 182.904 264.429 188.381C267.857 195.238 274.857 205 282.667 213.857C290.857 223.095 297.381 229 304.429 233.523C309.048 236.523 309.714 237.285 309.333 238.809C309.191 239.428 305.476 243.666 301.143 248.19C296.762 252.714 292.143 257.857 290.857 259.523C284.714 267.714 283.81 274 287.667 282.238C289.286 285.666 291.905 288.238 295.667 290C299.286 291.666 305.905 291.714 310.238 290.047C317 287.476 321.81 282.904 324.81 276.333C327.667 270.142 327.714 270.047 329.191 268.809C331.524 266.857 333.143 268.619 334.572 274.619C336.381 282.571 342.905 291.047 349.381 293.952C351.143 294.761 352.857 295.047 357.191 295.19C373 295.761 382.857 289.095 383.667 277.238C383.81 275.047 383.714 272.142 383.381 270.428C382.619 266.571 378.81 258.761 375.714 254.809C367.714 244.619 366.572 242.809 367.524 241.857C368.381 241 371.667 240.523 380.524 240.047C399.524 239.047 420.667 234.047 439.762 226.047C450.762 221.476 451.238 223.619 441.81 235.761C426.048 256.19 414.619 276.142 405 300.047C397.476 318.809 393.429 334.381 391.667 351.952C390.81 360 389.857 365.666 389.048 367.142C388.524 368.19 387.095 369.095 386.095 369.047C385.762 369.047 383.762 368.523 381.667 367.904Z" fill="#191919"/>
</svg>
