<svg width="24" height="24" viewBox="0 0 24 24" fill="none"
  xmlns="http://www.w3.org/2000/svg">
  <path d="M6.75 3C6.28587 3 5.84075 3.18964 5.51256 3.52721C5.18437 3.86477 5 4.32261 5 4.8V19.2C5 19.6774 5.18437 20.1352 5.51256 20.4728C5.84075 20.8104 6.28587 21 6.75 21H17.25C17.7141 21 18.1592 20.8104 18.4874 20.4728C18.8156 20.1352 19 19.6774 19 19.2V8.4L13.75 3H6.75ZM6.75 4.8H12.875V9.3H17.25V19.2H6.75V4.8ZM8.5 12V13.8H15.5V12H8.5ZM8.5 15.6V17.4H12.875V15.6H8.5Z" fill="currentColor"/>
</svg>
