<svg width="18" height="18" viewBox="0 0 18 18" fill="none"
  xmlns="http://www.w3.org/2000/svg">
  <path d="M17.283 7.35591L8.95601 7.35591V10.8069L13.748 10.8069C13.302 12.9999 11.435 14.2599 8.95601 14.2599C8.26235 14.2611 7.57527 14.1253 6.93419 13.8604C6.29312 13.5955 5.71065 13.2066 5.2202 12.716C4.72975 12.2255 4.34097 11.6429 4.07615 11.0018C3.81134 10.3607 3.6757 9.67358 3.67701 8.97991C3.67583 8.28633 3.81156 7.59934 4.07644 6.95832C4.34131 6.31731 4.73012 5.73489 5.22055 5.24445C5.71099 4.75402 6.29341 4.36521 6.93443 4.10034C7.57544 3.83546 8.26243 3.69973 8.95601 3.70091C10.215 3.70091 11.353 4.14791 12.246 4.87891L14.846 2.27991C13.262 0.898913 11.231 0.0469131 8.95601 0.0469131C7.78182 0.0434809 6.61854 0.272223 5.53306 0.719983C4.44759 1.16774 3.46135 1.82569 2.63107 2.65597C1.80079 3.48625 1.14284 4.47249 0.695083 5.55796C0.247324 6.64343 0.0185815 7.80672 0.0220137 8.98091C0.0184488 10.1551 0.2471 11.3185 0.694813 12.404C1.14253 13.4896 1.80046 14.4758 2.63077 15.3062C3.46108 16.1365 4.44737 16.7944 5.53291 17.2421C6.61844 17.6898 7.78178 17.9185 8.95601 17.9149C13.423 17.9149 17.485 14.6659 17.485 8.98091C17.485 8.45291 17.404 7.88391 17.283 7.35591Z" fill="currentColor"/>
</svg>
