<svg width="24" height="24" viewBox="0 0 24 24" fill="none" xmlns="http://www.w3.org/2000/svg">
<path d="M19.2 3H4.8C4.32261 3 3.86477 3.18964 3.52721 3.52721C3.18964 3.86477 3 4.32261 3 4.8V21L6.6 17.4H19.2C19.6774 17.4 20.1352 17.2104 20.4728 16.8728C20.8104 16.5352 21 16.0774 21 15.6V4.8C21 4.32261 20.8104 3.86477 20.4728 3.52721C20.1352 3.18964 19.6774 3 19.2 3ZM8.4 13.8H6.6V12H8.4V13.8ZM8.4 11.1H6.6V9.3H8.4V11.1ZM8.4 8.4H6.6V6.6H8.4V8.4ZM14.7 13.8H10.2V12H14.7V13.8ZM17.4 11.1H10.2V9.3H17.4V11.1ZM17.4 8.4H10.2V6.6H17.4V8.4Z" fill="currentColor"/>
</svg>
