<svg xmlns="http://www.w3.org/2000/svg" width="512" height="512" viewBox="0 0 512 512" version="1.1">
	<path d="M 246.177 143.106 C 243.295 149.090, 239.915 154.156, 236.041 158.297 L 230.228 164.511 235.114 167.880 C 238.676 170.336, 240 171.901, 240 173.656 C 240 176.490, 237.406 177.811, 235.114 176.145 C 226.022 169.534, 222.476 169.288, 216.882 174.882 C 211.682 180.082, 211.753 182.587, 217.141 184.038 C 223.192 185.667, 231.265 193.734, 235.578 202.461 C 238.842 209.064, 241.877 221.321, 241.965 228.250 C 241.997 230.782, 241.694 231, 238.131 231 C 234.461 231, 234.231 230.814, 233.676 227.388 C 233.353 225.402, 231.876 220.564, 230.393 216.638 C 223.133 197.420, 212.200 189.474, 198.496 193.458 C 188.167 196.461, 180.862 206.122, 182.464 214.660 C 184.367 224.802, 193.671 235.676, 198.103 232.937 C 199.177 232.272, 199.091 231.415, 197.645 228.383 C 196.666 226.328, 195.617 222.562, 195.315 220.015 C 194.853 216.113, 195.140 214.953, 197.133 212.658 C 201.833 207.246, 211.972 208.433, 218.899 215.206 C 222.581 218.805, 224.325 221.845, 225.809 227.250 L 226.839 231 223.419 231 C 220.667 231, 220 231.390, 220 233 C 220 234.958, 220.667 235, 251.573 235 C 281.103 235, 283.125 234.887, 282.815 233.250 C 282.582 232.020, 281.352 231.407, 278.676 231.186 C 274.961 230.879, 274.886 230.794, 275.557 227.686 C 277.296 219.625, 281.636 214.376, 289.401 210.941 C 295.165 208.391, 300.099 208.804, 303.643 212.135 C 306.509 214.827, 306.817 220.919, 304.392 226.978 C 302.784 230.996, 303.030 234, 304.966 234 C 307.183 234, 314.436 226.239, 316.647 221.500 C 319.731 214.892, 319.701 208.872, 316.558 203.509 C 311.841 195.459, 300.067 190.483, 291.390 192.871 C 281.296 195.649, 271.589 210.066, 267.570 228.250 C 267.044 230.630, 266.476 231, 263.352 231 L 259.742 231 260.435 223.966 C 261.838 209.720, 266.981 198.146, 275.475 190.112 C 278.574 187.182, 282.390 184.664, 284.850 183.927 C 290.204 182.323, 290.271 180.036, 285.118 174.882 C 279.496 169.261, 276.088 169.511, 266.750 176.230 C 265.449 177.167, 264.551 177.207, 263.250 176.388 C 259.970 174.322, 260.757 172.284, 266.391 168.250 L 271.892 164.310 267.320 159.905 C 261.669 154.460, 255.783 145.618, 253.403 139.001 C 252.414 136.250, 251.356 134.029, 251.052 134.064 C 250.749 134.099, 248.554 138.168, 246.177 143.106 M 58 213.799 C 58 214.239, 61.215 217.276, 65.145 220.549 C 69.075 223.822, 76.398 231, 81.419 236.500 C 101.335 258.318, 113.351 276.897, 123.456 301.500 C 129.769 316.870, 129.110 316.520, 144.183 312.508 C 155.983 309.368, 178.620 305.559, 195.500 303.875 C 222.552 301.175, 278.647 302.537, 304.529 306.522 C 314.041 307.987, 310.937 307.857, 291 305.958 C 272.946 304.238, 224.945 303.634, 206.554 304.895 C 187.780 306.182, 170.029 308.571, 168.596 310.004 C 166.628 311.972, 171.411 312.165, 184.250 310.634 C 191.537 309.765, 201.438 308.764, 206.250 308.409 L 215 307.763 215 311.882 C 215 315.608, 215.238 316, 217.500 316 C 219.750 316, 220 315.600, 220 312 L 220 308 227.250 307.802 C 238.576 307.492, 268.887 308.015, 275.193 308.629 C 280.715 309.167, 280.896 309.279, 281.193 312.342 C 281.447 314.952, 281.978 315.555, 284.250 315.816 C 286.783 316.108, 287 315.858, 287 312.662 C 287 309.249, 287.063 309.197, 290.750 309.573 C 292.813 309.783, 301.147 310.684, 309.271 311.576 C 324.290 313.225, 327.615 313.045, 326.690 310.633 C 326.139 309.200, 336.963 310.806, 356.453 315.050 C 370.975 318.213, 374 317.591, 374 311.445 C 374 307.936, 380.876 291.551, 387.195 280.007 C 397.462 261.245, 411.759 243.166, 430.661 225.043 L 443.500 212.733 434.285 213.239 C 426.436 213.670, 423.989 214.261, 417.785 217.221 C 413.778 219.133, 407.943 222.791, 404.817 225.349 C 399.768 229.482, 398.840 229.890, 396.502 229.001 C 391.205 226.987, 378.721 228.256, 375.557 231.130 C 374.158 232.401, 379.784 237.937, 384.750 240.177 C 387.088 241.231, 389 242.239, 389 242.417 C 389 242.595, 387.219 246.511, 385.043 251.120 C 382.867 255.729, 379.442 264.675, 377.432 271 C 372 288.096, 372.993 286.630, 366.335 287.380 C 350.181 289.201, 342.013 282.833, 341.157 267.750 C 340.901 263.231, 341.142 261, 341.887 261 C 342.499 261, 343 262.109, 343 263.465 C 343 266.530, 345.587 268, 350.984 268 C 355.614 268, 360.445 265.887, 361.379 263.455 C 363.219 258.660, 361.268 252, 358.024 252 C 354.953 252, 354.797 250.388, 357.483 246.429 C 361.259 240.866, 360.751 236.957, 355.928 234.463 C 352.533 232.707, 348.013 232.581, 344.576 234.147 C 341.861 235.384, 339.472 240.875, 340.290 243.999 C 340.712 245.614, 340.446 245.740, 338.324 244.933 C 330.902 242.111, 325 245.802, 325 253.263 C 325 259.314, 326.719 261.368, 331.331 260.830 C 335.998 260.285, 336.366 262.715, 331.994 265.203 C 330.299 266.168, 329 267.740, 329 268.828 C 329 270.328, 327.410 271.270, 321.750 273.123 C 311.605 276.446, 302.429 276.290, 294.874 272.669 C 288.624 269.673, 281.300 262.469, 278.072 256.142 L 275.959 252 279.980 252 C 283.601 252, 284 251.752, 284 249.500 C 284 247.204, 284.367 247, 288.500 247 L 293 247 293 242 L 293 237 251.500 237 L 210 237 210 242 L 210 247 215 247 C 219.667 247, 220 247.167, 220 249.500 C 220 251.333, 220.533 252, 222 252 C 224.459 252, 224.462 252.183, 222.087 256.790 C 218.635 263.486, 213.186 268.783, 206.226 272.208 C 200.357 275.096, 198.615 275.487, 192.018 275.397 C 182.373 275.265, 171.862 271.666, 171.043 268.215 C 170.744 266.959, 169.411 265.384, 168.079 264.715 C 164 262.668, 164.351 261, 168.860 261 C 171.887 261, 173.273 260.448, 174.443 258.777 C 176.984 255.150, 176.421 250.267, 173.077 246.923 C 170.016 243.862, 166.975 243.298, 162.565 244.975 C 160.075 245.922, 160 245.833, 160 241.930 C 160 236.497, 156.579 232.994, 151.295 233.015 C 141.198 233.054, 137.536 240.592, 144.171 247.676 C 146.560 250.226, 145.865 252, 142.480 252 C 140.521 252, 139.877 252.743, 138.994 256.021 C 137.050 263.240, 141.201 267.955, 149.527 267.985 C 154.194 268.002, 158 265.737, 158 262.943 C 158 261.874, 158.515 261, 159.145 261 C 160.945 261, 159.393 273.557, 156.976 278.549 C 155.835 280.906, 153.789 283.564, 152.428 284.455 C 148.540 287.003, 140.239 288.275, 133.633 287.335 L 127.766 286.500 125.029 277 C 121.959 266.342, 118.121 256.310, 113.833 247.728 C 111.192 242.443, 111.099 241.908, 112.725 241.385 C 118.347 239.573, 120.317 238.403, 123.117 235.214 L 126.225 231.674 123.388 230.187 C 119.666 228.237, 108.038 227.442, 103.971 228.860 C 100.938 229.917, 100.503 229.738, 95.775 225.487 C 90.316 220.579, 80.979 215.694, 73.972 214.079 C 68.648 212.853, 58 212.666, 58 213.799 M 231.623 254.367 C 230.889 257.292, 224.816 266.367, 220.623 270.806 C 216.017 275.682, 205.280 280.706, 197.781 281.495 C 190.255 282.287, 179.434 280.261, 171.301 276.537 C 168.252 275.142, 165.645 274, 165.507 274 C 165.369 274, 164.970 275.788, 164.620 277.974 C 163.142 287.218, 153.383 293.076, 138.261 293.797 L 129.022 294.238 129.629 296.869 C 129.963 298.316, 131.421 300.693, 132.868 302.151 L 135.500 304.801 144.500 302.488 L 153.500 300.175 143.750 300.738 C 135.170 301.234, 134 301.106, 134 299.670 C 134 298.686, 135.092 297.826, 136.750 297.503 C 151.251 294.682, 158.007 291.487, 164.620 284.325 L 169.759 278.759 171.967 280.967 C 175.384 284.384, 180.740 286.171, 189.323 286.760 C 196.729 287.267, 197.580 287.106, 204.073 283.965 C 207.863 282.131, 211.233 280.900, 211.562 281.229 C 211.891 281.557, 211.397 282.991, 210.465 284.413 C 208.170 287.915, 209.924 287.798, 216.654 284 C 222.390 280.763, 230.831 279.845, 232.755 282.250 C 236.658 287.128, 233.782 292, 227 292 C 223.387 292, 223 291.755, 223 289.469 C 223 285.863, 220.827 285.499, 216.566 288.391 C 214.535 289.769, 210.764 291.257, 208.187 291.698 C 200.895 292.946, 183.824 292.620, 181.250 291.184 C 179.127 290.001, 179 290.108, 179 293.080 L 179 296.230 184.250 295.608 C 207.645 292.835, 250.209 292.108, 276.500 294.033 C 295.519 295.425, 325.110 299.304, 344.681 302.969 C 353.580 304.636, 361.479 306, 362.235 306 C 364.758 306, 371 299.387, 371 296.715 C 371 294.245, 370.840 294.193, 362.225 293.849 C 354.738 293.551, 352.471 293.018, 346.786 290.218 C 339.214 286.488, 336 282.415, 336 276.550 L 336 272.837 332.750 274.795 C 321.613 281.503, 303.838 283.357, 292.500 278.993 C 284.902 276.068, 274.627 266.119, 270.560 257.750 C 267.976 252.434, 267.510 252, 264.383 252 C 260.297 252, 260.064 253.436, 263.124 259.757 C 265.606 264.883, 270.859 270.285, 275.050 272.021 C 277.147 272.889, 278 273.930, 278 275.621 C 278 277.857, 277.646 278, 272.115 278 C 266.921 278, 266.035 277.703, 264.571 275.468 C 262.636 272.515, 260.579 273.185, 261.410 276.497 C 261.856 278.276, 261.216 279.361, 258.491 281.439 C 255.894 283.420, 255 284.857, 255 287.051 C 255 289.755, 254.709 290, 251.500 290 C 248.416 290, 248 289.697, 248 287.452 C 248 285.019, 243.810 280, 241.779 280 C 241.267 280, 240.996 278.575, 241.175 276.834 C 241.585 272.840, 239.788 272.148, 237.616 275.463 C 236.172 277.668, 235.237 278, 230.477 278 C 225.454 278, 225.003 277.813, 225.032 275.750 C 225.054 274.186, 226.378 272.703, 229.379 270.884 C 234.739 267.634, 238.751 262.479, 240.536 256.545 L 241.904 252 237.061 252 C 232.801 252, 232.145 252.285, 231.623 254.367 M 328.656 280.455 C 327.527 283.396, 320.109 286.090, 311.455 286.700 C 303.418 287.268, 302.746 287.150, 296.495 284.072 C 288.924 280.345, 286.958 280.406, 290.001 284.274 C 292.023 286.845, 292.039 287, 290.268 287 C 289.236 287, 286.263 285.650, 283.661 284 C 280.065 281.720, 277.756 281, 274.037 281 C 268.346 281, 266 282.762, 266 287.036 C 266 290.588, 268.664 292.236, 273.715 291.808 C 276.663 291.558, 277.375 291.077, 277.505 289.250 C 277.727 286.141, 278.792 285.350, 280.798 286.805 C 286.839 291.188, 298.542 293.574, 309.500 292.657 C 313.350 292.335, 317.476 291.788, 318.668 291.441 C 320.408 290.934, 320.901 291.273, 321.168 293.155 C 321.462 295.228, 322.109 295.535, 326.750 295.802 C 330.008 295.990, 332 295.698, 332 295.032 C 332 294.438, 333.868 294.912, 336.187 296.096 C 344.188 300.177, 367 302.731, 367 299.545 C 367 298.642, 365.577 297.853, 363.250 297.464 C 349.958 295.241, 339.690 290.124, 334.729 283.250 C 331.548 278.844, 329.615 277.954, 328.656 280.455 M 165.435 295.408 C 164.330 296.182, 161.192 297.501, 158.463 298.338 C 151.876 300.359, 154.343 300.270, 166.500 298.048 C 172.971 296.865, 175.177 296.181, 172.750 296.110 C 170.688 296.050, 169 295.550, 169 295 C 169 293.613, 167.801 293.750, 165.435 295.408 M 316.750 308.662 C 317.438 308.940, 318.563 308.940, 319.250 308.662 C 319.938 308.385, 319.375 308.158, 318 308.158 C 316.625 308.158, 316.063 308.385, 316.750 308.662 M 235.500 314.078 C 228.900 316.217, 221.588 317.975, 219.250 317.984 L 215 318 215 323 L 215 328 218.500 328 C 221.722 328, 222 327.762, 222 325 C 222 323.350, 222.494 322, 223.097 322 C 223.701 322, 229.570 323.913, 236.140 326.250 L 248.085 330.500 222.486 331.661 C 195.957 332.864, 171.238 335.422, 169.500 337.144 C 168.835 337.803, 169.073 338.558, 170.212 339.400 C 171.676 340.482, 170.773 340.842, 163.998 341.879 C 154.506 343.332, 132.665 348.574, 129.870 350.070 C 127.136 351.533, 127.733 356.073, 130.864 357.626 C 132.791 358.581, 134.823 358.365, 141.864 356.454 C 162.655 350.813, 188.270 347.278, 217 346.084 C 260.534 344.275, 306.648 348.188, 352.080 357.545 C 367.966 360.817, 369.408 360.963, 371.616 359.516 C 374.617 357.549, 374.677 354.477, 371.750 352.615 C 370.512 351.828, 361.400 349.594, 351.500 347.650 C 313.588 340.208, 284.266 337.046, 244 336.058 L 214.500 335.334 236.500 335.171 C 263.753 334.968, 307.174 337.684, 322 340.518 C 325.073 341.106, 327.935 339.535, 326.467 338.067 C 325.023 336.623, 289.679 333.077, 269.207 332.323 C 259.696 331.973, 252.271 331.384, 252.707 331.014 C 253.517 330.328, 279.312 321, 280.400 321 C 280.730 321, 281 322.575, 281 324.500 C 281 327.833, 281.167 328, 284.500 328 L 288 328 288 322.950 L 288 317.899 283.250 318.132 C 279.930 318.295, 274.552 317.106, 265.387 314.182 C 258.175 311.882, 251.200 310.043, 249.887 310.095 C 248.574 310.147, 242.100 311.939, 235.500 314.078 M 168.074 315.862 C 166.588 318.638, 168.890 321.255, 172.448 320.836 C 176.086 320.407, 177.895 317.783, 176.070 315.584 C 174.239 313.378, 169.312 313.549, 168.074 315.862 M 188.500 314.887 C 180.782 316.857, 177.678 321.702, 181.929 325.144 C 184.727 327.409, 190.297 328.988, 195.500 328.991 C 205.016 328.995, 212.199 318.927, 204.711 316.080 C 201.117 314.714, 191.850 314.032, 188.500 314.887 M 301.597 315.020 C 295.267 316.128, 293.271 318.025, 294.565 321.703 C 297.022 328.690, 308.210 331.202, 317.038 326.750 C 320.801 324.853, 321.500 324.039, 321.500 321.556 C 321.500 316.212, 312.213 313.162, 301.597 315.020 M 325.930 315.584 C 323.937 317.986, 326.017 320.500, 330 320.500 C 333.983 320.500, 336.063 317.986, 334.070 315.584 C 333.347 314.713, 331.515 314, 330 314 C 328.485 314, 326.653 314.713, 325.930 315.584 M 142.028 324.062 C 139.250 327.255, 137.320 330.051, 137.739 330.274 C 138.157 330.498, 142.170 331.703, 146.655 332.952 L 154.810 335.224 162.905 330.372 C 167.357 327.704, 171 325.235, 171 324.885 C 171 324.535, 165.618 322.900, 159.039 321.252 L 147.078 318.255 142.028 324.062 M 342.750 321.266 C 336.288 322.968, 331.011 324.617, 331.025 324.930 C 331.038 325.244, 334.737 327.675, 339.244 330.333 L 347.439 335.166 355.754 332.932 C 360.327 331.703, 364.287 330.345, 364.553 329.915 C 364.819 329.484, 362.666 326.666, 359.768 323.652 L 354.500 318.172 342.750 321.266 M 171.074 328.862 C 169.588 331.638, 171.890 334.255, 175.448 333.836 C 179.086 333.407, 180.895 330.783, 179.070 328.584 C 177.239 326.378, 172.312 326.549, 171.074 328.862 M 322.930 328.584 C 320.937 330.986, 323.017 333.500, 327 333.500 C 330.983 333.500, 333.063 330.986, 331.070 328.584 C 330.347 327.713, 328.515 327, 327 327 C 325.485 327, 323.653 327.713, 322.930 328.584 M 202.776 336.733 C 205.128 336.945, 208.728 336.942, 210.776 336.727 C 212.824 336.512, 210.900 336.339, 206.500 336.343 C 202.100 336.346, 200.424 336.522, 202.776 336.733 M 184.500 338.045 C 182.070 338.507, 183.837 338.597, 189 338.275 C 193.675 337.982, 197.688 337.576, 197.917 337.372 C 198.622 336.743, 188.736 337.239, 184.500 338.045 M 176.269 339.693 C 177.242 339.947, 178.592 339.930, 179.269 339.656 C 179.946 339.382, 179.150 339.175, 177.500 339.195 C 175.850 339.215, 175.296 339.439, 176.269 339.693" stroke="none" fill="black" fill-rule="evenodd"/>
</svg>